<?xml version="1.0" encoding="iso-8859-1"?>
<!-- Generator: Adobe Illustrator 19.0.0, SVG Export Plug-In . SVG Version: 6.00 Build 0)  -->
<svg version="1.1" id="Layer_1" xmlns="http://www.w3.org/2000/svg" xmlns:xlink="http://www.w3.org/1999/xlink" x="0px" y="0px"
	 viewBox="0 0 512.001 512.001" style="enable-background:new 0 0 512.001 512.001;" xml:space="preserve">
<path style="fill:#4E342E;" d="M418.135,294.401c0.068,63.514-29.423,123.435-79.787,162.133H88.321
	C38.862,418.569,9.465,360.073,8.535,297.729c0-1.109,0-2.219,0-3.328s0-2.816,0-4.267c27.793,7.834,56.465,12.134,85.333,12.8
	c5.632,0,11.264,0,17.067,0c34.56,0.529,69.035-3.78,102.4-12.8c27.793-7.825,56.465-12.126,85.333-12.8c5.632,0,11.264,0,17.067,0
	c34.56-0.538,69.035,3.772,102.4,12.8C418.135,291.585,418.135,292.95,418.135,294.401z"/>
<path style="fill:#795548;" d="M384.001,294.401c0.068,63.514-29.423,123.435-79.787,162.133H88.321
	C38.862,418.569,9.465,360.073,8.535,297.729c22.579,3.558,45.406,5.299,68.267,5.205c5.803,0,11.435,0,17.067,0
	c28.868-0.674,57.54-4.975,85.333-12.8c33.365-9.02,67.84-13.329,102.4-12.8c5.803,0,11.435,0,17.067,0
	c28.868,0.666,57.54,4.966,85.333,12.8C384.001,291.585,384.001,292.95,384.001,294.401z"/>
<path d="M338.348,465.067H88.321c-1.886-0.009-3.712-0.64-5.205-1.792C30.525,423.083-0.229,360.594,0.001,294.401
	c0-1.621,0-3.157,0-4.779c0.265-4.702,4.301-8.303,9.003-8.038c0.683,0.043,1.357,0.162,2.005,0.358
	c32.563,8.798,66.202,12.988,99.925,12.459c33.724,0.529,67.362-3.669,99.925-12.459c34.176-9.25,69.478-13.679,104.875-13.141
	c35.371-0.529,70.647,3.891,104.789,13.141c3.43,1.033,5.854,4.105,6.059,7.68c0,1.621,0,3.157,0,4.779
	c0.23,66.193-30.524,128.683-83.115,168.875C342,464.41,340.208,465.042,338.348,465.067z M90.881,448.001h244.565
	c46.421-36.582,73.702-92.279,74.155-151.381c-30.711-7.518-62.251-11.136-93.867-10.752c-33.724-0.529-67.362,3.669-99.925,12.459
	c-34.176,9.25-69.478,13.679-104.875,13.141c-31.582,0.316-63.087-3.089-93.867-10.155c1.835,57.446,28.979,111.147,74.155,146.688
	L90.881,448.001L90.881,448.001z"/>
<path style="fill:#9E9E9E;" d="M418.135,290.134c-11.341-3.311-22.886-5.871-34.56-7.68
	c-4.292-65.502-35.908-126.191-87.125-167.253h34.133C383.933,157.919,415.916,221.833,418.135,290.134z"/>
<path style="fill:#F5F5F5;" d="M383.489,282.454c-22.409-3.524-45.073-5.231-67.755-5.12c-5.803,0-11.435,0-17.067,0
	c-28.868,0.674-57.54,4.975-85.333,12.8c-33.365,9.02-67.84,13.329-102.4,12.8c-5.803,0-11.435,0-17.067,0
	c-28.868-0.666-57.54-4.966-85.333-12.8c2.193-68.292,34.15-132.207,87.467-174.933h200.448
	C347.632,156.28,379.214,216.961,383.489,282.454z"/>
<path d="M110.935,311.467c-35.371,0.529-70.647-3.891-104.789-13.141c-3.729-1.126-6.229-4.642-6.059-8.533
	c2.5-70.699,35.567-136.832,90.624-181.248c1.502-1.203,3.362-1.869,5.291-1.877h234.667c1.929,0.009,3.789,0.674,5.291,1.877
	c55.134,44.442,88.235,110.652,90.709,181.419c0.205,4.71-3.447,8.687-8.158,8.892c-0.964,0.043-1.929-0.077-2.85-0.358
	c-32.555-8.849-66.193-13.107-99.925-12.629c-33.724-0.529-67.362,3.669-99.925,12.459
	C181.633,307.576,146.339,312.005,110.935,311.467z M17.068,283.734c30.711,7.492,62.251,11.076,93.867,10.667
	c33.724,0.529,67.362-3.669,99.925-12.459c34.176-9.25,69.478-13.679,104.875-13.141c31.343-0.307,62.618,3.038,93.184,9.984
	c-5.325-60.45-34.569-116.267-81.237-155.051H98.988C50.843,163.533,21.215,221.407,17.068,283.734z"/>
<path style="fill:#4E342E;" d="M85.335,456.534h256l0,0v25.6c0,4.71-3.823,8.533-8.533,8.533H93.868
	c-4.71,0-8.533-3.823-8.533-8.533V456.534L85.335,456.534z"/>
<path d="M332.801,499.201H93.868c-9.429,0-17.067-7.637-17.067-17.067v-25.6c0-4.71,3.823-8.533,8.533-8.533h256
	c4.71,0,8.533,3.823,8.533,8.533v25.6C349.868,491.563,342.231,499.201,332.801,499.201z M93.868,465.067v17.067h238.933v-17.067
	H93.868z"/>
<rect x="93.868" y="64.001" style="fill:#607D8B;" width="238.933" height="51.2"/>
<path d="M332.801,123.734H93.868c-4.71,0-8.533-3.823-8.533-8.533v-51.2c0-4.71,3.823-8.533,8.533-8.533h238.933
	c4.71,0,8.533,3.823,8.533,8.533v51.2C341.335,119.911,337.512,123.734,332.801,123.734z M102.401,106.667h221.867V72.534H102.401
	V106.667z"/>
<path d="M8.535,298.667L8.535,298.667c-4.71,0-8.533-3.823-8.533-8.533c0-4.71,3.823-8.533,8.533-8.533s8.533,3.823,8.533,8.533
	C17.068,294.844,13.245,298.667,8.535,298.667z"/>
<path d="M418.135,298.667L418.135,298.667c-4.71,0-8.533-3.823-8.533-8.533c0-4.71,3.823-8.533,8.533-8.533s8.533,3.823,8.533,8.533
	C426.668,294.844,422.845,298.667,418.135,298.667z"/>
<path style="fill:#9E9E9E;" d="M332.801,64.001H93.868c-34.133,0-34.133-42.667-34.133-42.667h247.467L332.801,64.001z"/>
<path style="fill:#F5F5F5;" d="M298.668,64.001h-204.8c-34.133,0-34.133-42.667-34.133-42.667h213.333L298.668,64.001z"/>
<path d="M332.801,72.534H93.868c-34.133,0-42.667-33.451-42.667-51.2c0-4.71,3.823-8.533,8.533-8.533h247.467
	c3.012,0,5.803,1.587,7.339,4.181l25.6,42.667c2.406,4.053,1.067,9.293-2.987,11.691C335.839,72.124,334.337,72.534,332.801,72.534z
	 M69.121,29.867c1.877,10.155,7.68,25.6,24.747,25.6h223.829l-15.36-25.6H69.121z"/>
<path d="M136.535,123.734c-4.71,0-8.533-3.823-8.533-8.533v-51.2c0-4.71,3.823-8.533,8.533-8.533s8.533,3.823,8.533,8.533v51.2
	C145.068,119.911,141.245,123.734,136.535,123.734z"/>
<path d="M170.668,123.734c-4.71,0-8.533-3.823-8.533-8.533v-51.2c0-4.71,3.823-8.533,8.533-8.533c4.71,0,8.533,3.823,8.533,8.533
	v51.2C179.201,119.911,175.378,123.734,170.668,123.734z"/>
<path d="M256.001,123.734c-4.71,0-8.533-3.823-8.533-8.533v-51.2c0-4.71,3.823-8.533,8.533-8.533c4.71,0,8.533,3.823,8.533,8.533
	v51.2C264.535,119.911,260.712,123.734,256.001,123.734z"/>
<path d="M290.135,123.734c-4.71,0-8.533-3.823-8.533-8.533v-51.2c0-4.71,3.823-8.533,8.533-8.533s8.533,3.823,8.533,8.533v51.2
	C298.668,119.911,294.845,123.734,290.135,123.734z"/>
<path style="fill:#607D8B;" d="M332.801,98.134h68.267c37.7,0,68.267,30.566,68.267,68.267v93.867
	c0,9.429,7.637,17.067,17.067,17.067l0,0c9.429,0,17.067-7.637,17.067-17.067v-102.4c0-51.84-42.027-93.867-93.867-93.867h-76.8"/>
<path d="M486.401,285.867c-14.14,0-25.6-11.46-25.6-25.6v-93.867c0-32.99-26.743-59.733-59.733-59.733h-68.267
	c-4.71,0-8.533-3.823-8.533-8.533c0-4.71,3.823-8.533,8.533-8.533h68.267c42.419,0,76.8,34.381,76.8,76.8v93.867
	c0,4.71,3.823,8.533,8.533,8.533s8.533-3.823,8.533-8.533v-102.4c0-47.13-38.204-85.333-85.333-85.333h-76.8
	c-4.71,0-8.533-3.823-8.533-8.533c0-4.71,3.823-8.533,8.533-8.533h76.8c56.55,0,102.4,45.85,102.4,102.4v102.4
	C512.001,274.407,500.541,285.867,486.401,285.867z"/>
<path d="M119.468,157.867h-8.533c-4.71,0-8.533-3.823-8.533-8.533s3.823-8.533,8.533-8.533h8.533c4.71,0,8.533,3.823,8.533,8.533
	S124.178,157.867,119.468,157.867z"/>
<path d="M230.401,157.867h-76.8c-4.71,0-8.533-3.823-8.533-8.533s3.823-8.533,8.533-8.533h76.8c4.71,0,8.533,3.823,8.533,8.533
	S235.112,157.867,230.401,157.867z"/>
<path d="M230.401,260.267h-34.133c-4.71,0-8.533-3.823-8.533-8.533s3.823-8.533,8.533-8.533h34.133c4.71,0,8.533,3.823,8.533,8.533
	S235.112,260.267,230.401,260.267z"/>
<path d="M230.401,337.067h-34.133c-4.71,0-8.533-3.823-8.533-8.533s3.823-8.533,8.533-8.533h34.133c4.71,0,8.533,3.823,8.533,8.533
	S235.112,337.067,230.401,337.067z"/>
<path d="M230.401,371.201h-34.133c-4.71,0-8.533-3.823-8.533-8.533s3.823-8.533,8.533-8.533h34.133c4.71,0,8.533,3.823,8.533,8.533
	S235.112,371.201,230.401,371.201z"/>
<path d="M230.401,405.334h-34.133c-4.71,0-8.533-3.823-8.533-8.533s3.823-8.533,8.533-8.533h34.133c4.71,0,8.533,3.823,8.533,8.533
	S235.112,405.334,230.401,405.334z"/>
<g>
</g>
<g>
</g>
<g>
</g>
<g>
</g>
<g>
</g>
<g>
</g>
<g>
</g>
<g>
</g>
<g>
</g>
<g>
</g>
<g>
</g>
<g>
</g>
<g>
</g>
<g>
</g>
<g>
</g>
</svg>
